<?xml version="1.0" encoding="UTF-8"?>
<!-- Generator: Adobe Illustrator 27.8.1, SVG Export Plug-In . SVG Version: 6.00 Build 0)  -->
<svg xmlns="http://www.w3.org/2000/svg" xmlns:xlink="http://www.w3.org/1999/xlink" version="1.1" id="Layer_1" x="0px" y="0px" viewBox="0 0 161.6 62.5" style="enable-background:new 0 0 161.6 62.5;" xml:space="preserve">
<style type="text/css">
	.st0{fill:#A28B61;}
	.st1{fill:#F5F6F6;}
</style>
<path class="st0" d="M82,11.6c-0.4,0.6-0.6,3,0,2.1c0.6-0.9,0.9-0.3,1-1.3c0.1-1,0.3-0.6,1.3-1.6h-0.8C82.8,10.8,82.5,11,82,11.6"></path>
<path class="st0" d="M77.1,37.7c-1.2-2.3-0.7-1.5-2.6-3.8c-1.9-2.3-2-2.3-4-3.7c0,0-0.5-0.5-0.6,0.6c-0.1,1.1,1,2.4,2.8,3.6  c1.8,1.2,3.8,4.3,4.9,5.6c1.1,1.3,2.2,2.4,1.3,0.7C78.1,38.9,78.3,40,77.1,37.7"></path>
<path class="st0" d="M71.7,24.3c-0.3,2-1.3,1.2-1.9,2.4c-0.6,1.1,1.5,1.5,1.8,2.7c0.3,1.2,4.4,3.3,5.7,4.2c1.3,0.9,3.4-1.1,4.5-1.1  c1.1,0-0.7-2.6-1.9-5.8c-1.1-2.8-3.6-4.2-5.3-5.3L74,20.9l0.8-0.5c1.7-1.1,4.2-2.5,5.3-5.3c1.2-3.2,3-5.8,1.9-5.8  c-1.1,0-3.2-2-4.5-1.1c-1.3,0.9-5.4,3-5.7,4.2c-0.3,1.2-2.4,1.6-1.8,2.7c0.6,1.1,1.6,0.4,1.9,2.4c0.2,1,0.3,2.1,0.6,2.9  c0.1,0.2,0.1,0.3,0.2,0.4h0c0,0,0,0,0,0c0.1,0.1,0.1,0.1,0.1,0.1s0,0.1-0.1,0.1c0,0,0,0,0,0h0c-0.1,0.1-0.1,0.2-0.2,0.4  C72,22.1,71.9,23.3,71.7,24.3"></path>
<path class="st0" d="M70.5,11.6c2-1.4,2.2-1.4,4-3.7c1.9-2.3,1.4-1.5,2.6-3.8c1.2-2.3,1-1.3,1.9-2.9c0.8-1.7-0.3-0.6-1.3,0.7  c-1.1,1.3-3.2,4.5-4.9,5.6C71,8.6,69.8,10,69.9,11C70,12.1,70.5,11.6,70.5,11.6"></path>
<path class="st0" d="M86,7.8c0.2-2.9-0.3-4.2-1.1-5.2c-0.8-1-2.2-2.5-3.8-1.7C79.6,1.7,77.7,7,77.7,7C80.4,8,85.7,10.7,86,7.8"></path>
<path class="st0" d="M83.6,30.9h0.8c-1-1-1.2-0.7-1.3-1.6c-0.1-1-0.4-0.4-1-1.3c-0.6-0.9-0.4,1.5,0,2.1  C82.5,30.7,82.8,30.9,83.6,30.9"></path>
<path class="st0" d="M79.1,20.2c-0.3-1.5-1.5-0.3-3.1,0c0,0-0.2,0-0.3,0.3c0,0.4,0.6,0.9,1.1,1.1c0,0,0,0,0,0c0.1,0,0.2,0.1,0.2,0.1  c0.1,0,0.1,0.1,0.2,0.1c0.9,0.4,1.6,0.6,1.8-0.4c0,0,0.1-0.2,0.1-0.5c0-0.1,0-0.1,0-0.1c0,0,0-0.1,0-0.1  C79.2,20.4,79.1,20.2,79.1,20.2"></path>
<path class="st0" d="M89.7,34.5c-0.3,0.1-0.6,0.3-0.6,0.3c-2.1,0.6-2.2,1.2-2.5,2.5c-0.3,1.2-0.8,3.3,1.2,3.3c0.6,0,1.2,0,1.7,0  c0,0,0.1,0,0.1,0c0,0,0.1,0,0.1,0c0.5,0,1.1,0,1.8,0c0.2,0,0.4,0,0.5-0.1c0,0,0,0,0,0C91.5,38.4,90.4,35.9,89.7,34.5"></path>
<path class="st0" d="M86.9,28.2C86.9,28.2,86.8,28.1,86.9,28.2c-0.3,0-0.6-0.1-0.8-0.3h0c-1.6-1.6,3.1-6,3.1-6c0,0,0-0.1-0.1-0.3  c-0.1-0.3-0.2-0.5-0.2-0.7l0,0v0c-0.4-1.1-0.9-1.8-1.3-2.6c-2-2.5-0.2-4.5-0.2-4.5c0.1-0.2,0.2-0.4,0.3-0.6c0.1-0.1,0.2-0.3,0.2-0.4  h0c0.5-1,0.9-2.6,1.3-4.1c0,0,0,0,0-0.1c-0.1,0.1-0.3,0.3-0.7,0.6c-0.4,0.3-0.8,0.7-1.5,1.4c-0.7,0.6-1,0.8-1.3,1.1  c-3.6,3.5-4.6,5.2-4.5,6c0.1,0.8,0.6,1.6,1.8,2h0c0.7,0.3,1.6,0.5,2.6,0.6c0.2,0,0.3,0,0.5,0c1,0.2,2.4,0.6,3,1.5  c0.1,0.1,0.1,0.2,0.1,0.2c-0.3-0.2-0.6-0.3-0.9-0.3c-1.6-0.5-4.7-1.3-5.7,0.2c-0.4,0.4-0.9,1.2-1,2.1c0,0,0,0,0,0.1  c-0.4,2.7,4.8,7.3,7.6,9.3C88.6,30.8,87.9,28.4,86.9,28.2"></path>
<path class="st0" d="M109.1,18.6C109.1,18.5,109.2,18.5,109.1,18.6c0-0.1,0.1-0.1,0.1-0.2v0c0.4-1,1.4-1.9,2.1-2.9  c0.4-0.6,0.7-1.2,0.7-1.9c0.2-2.3,0.2-3.4-4.3-7.3c-3.4-2.9-3.6-3.7-4.5-5.7c-0.2-0.2-0.5-0.3-0.7-0.3c0,0,0,0,0,0  C101.8,0,101.2,0,100.8,0c-0.2,0-1.3,0.7-1.3,0.7s-1.4-0.4-2.3-0.4c-0.9,0-1.6,0.5-1.6,0.5c-1.1,1.3-1.8,2.1-2.2,1.5  c-0.2-0.3-0.1-1.1,0.1-2h-0.3c-0.6,0.1-1,1-1,1c1.3,0.4,0.9,2.1,0.6,3.2c-0.2,1.2-0.4,1.9-2.5,2.5c0,0-0.2,0.1-0.5,0.2  c-0.3,0.6-0.5,1.1-0.6,1.3c0.1-0.1,0.2-0.2,0.5-0.2c0.1,0,0.2,0.1,0.2,0.1c0.1,0.1,0.2,0.1,0.2,0.2c0.4,0.4,0.9,0.9,1.5,1.4  c1.9,1.8,4.4,4.1,4.9,5.2c0.5,1.1,0.4,2.3,0.3,2.7c0,0.3-0.1,0.7-0.3,1c-0.2,0.4-0.7,0.7-1.5,1.1l-5.9,1.8c0,0,0,0,0.1,0h0  c0.1,0,0.2,0.1,0.2,0.1l0.2,0.1c0,0,0.1,0,0.1,0.1c0,0,0,0,0.1,0l0,0l-0.1,0c0,0,6.6,2.1,6.6,4.5c-0.2,1.5-6.6,6.8-6.6,6.8l0.2-0.1  c-0.1,0-0.1,0-0.2,0.1c-0.3-0.1-0.4-0.2-0.6-0.3c0,0.1,0.1,0.2,0.1,0.3c0,0,0.2,0.4,0.5,1.1c0,0,0,0,0,0c0.3,0.1,0.6,0.3,0.6,0.3  c2.1,0.6,2.3,1.2,2.5,2.5c0.2,1.1,0.6,2.9-0.7,3.2c0,0,1,0.8,1.3,0.4c-0.1-0.5-0.1-1,0-1.2c0.3-0.4,0.8,0,1.6,0.8c0,0,0.6,0.6,1.3,1  c0.5,0.2,1.1,0.3,1.4,0.3c0.6,0,1.8-0.3,1.8-0.3s0.5,0.3,0.9,0.3c0.1,0,0.8,0,1.5-0.1c1.6-0.8,1.9-1.2,3.2-3.5  c1.3-2.4,4-2.8,4.8-3.8c0.5-0.6,0.9-1,1.1-1.1c1.2-0.8-0.1-2.8-0.5-3.8c-0.4-1,0.4-1.2,1-1.9c0.5-0.5-0.4-1.6-1.2-2.3  C107.3,23,108.6,19.9,109.1,18.6 M100.6,0.4c0.3,0.3,0.8,0.8,1.3,1.4c1.1,1.3,3.2,4.5,4.9,5.6c1.8,1.2,2.9,2.5,2.8,3.6  c-0.1,1.1-0.6,0.6-0.6,0.6c-2-1.4-2.2-1.4-4-3.7c-1.9-2.3-1.4-1.5-2.6-3.8c-1.2-2.3-1-1.3-1.9-2.9c-0.1-0.2-0.1-0.3-0.2-0.4  L100.6,0.4z M93.5,7.8c-0.3-2.9,0.3-4.2,1.1-5.2c0.8-1,2.2-2.5,3.8-1.7c1.6,0.8,3.4,6.1,3.4,6.1C99.1,8,93.8,10.7,93.5,7.8   M96.4,12.4c-0.1-1-0.3-0.6-1.3-1.6h0.8c0.8,0,1.1,0.3,1.5,0.9c0.4,0.6,0.6,3,0,2.1C96.9,12.8,96.5,13.3,96.4,12.4 M96.4,29.3  c0.1-1,0.4-0.4,1-1.3c0.6-0.9,0.4,1.5,0,2.1c-0.4,0.6-0.7,0.9-1.5,0.9h-0.8C96.1,29.9,96.3,30.3,96.4,29.3 M98.3,40.8  c-1.6,0.8-3-0.7-3.8-1.7c-0.8-1-1.3-2.3-1.1-5.2c0.2-2.9,5.6-0.2,8.3,0.8C101.8,34.7,99.9,40,98.3,40.8 M106.8,34.2  c-1.8,1.2-3.8,4.3-4.9,5.6c-1.1,1.3-2.2,2.4-1.3,0.7c0.8-1.7,0.7-0.6,1.9-2.9c1.2-2.3,0.7-1.5,2.6-3.8c1.9-2.3,2-2.3,4-3.7  c0,0,0.5-0.5,0.6,0.6C109.7,31.7,108.6,33.1,106.8,34.2 M107.9,29.4c-0.3,1.2-4.4,3.3-5.8,4.2c-1.3,0.9-3.4-1.1-4.5-1.1  c-1.1,0,0.7-2.6,1.9-5.8c1.1-2.8,3.6-4.2,5.3-5.3l0.8-0.5l-0.8-0.5c-1.7-1.1-4.2-2.5-5.3-5.3c-1.2-3.2-3-5.8-1.9-5.8  c1.1,0,3.2-2,4.5-1.1c1.3,0.9,5.4,3,5.8,4.2c0.3,1.2,2.4,1.6,1.8,2.7c-0.6,1.1-1.6,0.4-1.9,2.4c-0.2,1-0.3,2.1-0.6,2.9  c-0.1,0.2-0.1,0.3-0.2,0.4c0,0,0,0,0,0c-0.1,0.1-0.1,0.1-0.1,0.1s0,0.1,0.1,0.1c0,0,0,0,0,0c0.1,0.1,0.1,0.2,0.2,0.4  c0.3,0.8,0.4,1.9,0.6,2.9c0.3,2,1.3,1.2,1.9,2.4C110.3,27.8,108.2,28.2,107.9,29.4 M100.3,20.7c0-0.3,0.1-0.5,0.1-0.5  c0.2-0.7,0.5-0.8,1-0.7c0.1,0,0.3,0.1,0.5,0.2c0.1,0,0.3,0.1,0.5,0.2c0.2,0.1,0.5,0.2,0.8,0.4c0.2,0.2,0.3,0.3,0.4,0.3c0,0,0,0,0,0  c0.2,0.2,0.1,0.5-0.2,0.7c-0.2,0.1-0.4,0.2-0.7,0.3c-1.2,0.4-2,1-2.3-0.3c0,0-0.1-0.2-0.1-0.5c0-0.1,0-0.1,0-0.1  C100.3,20.8,100.3,20.8,100.3,20.7"></path>
<path class="st0" d="M92.2,1.2c-0.2,0-0.4-0.1-0.6-0.1c-0.6,0-1.2,0-1.8,0c0,0-0.1,0-0.1,0c0,0-0.1,0-0.1,0c-0.5,0-1.1,0-1.7,0  c-2,0-1.5,2.1-1.2,3.3c0.3,1.2,0.4,1.9,2.5,2.5c0,0,0.3,0.2,0.6,0.3c0,0,0.1,0,0.1,0c0.7-1.5,1.7-3.8,2.3-5.6  C92.1,1.4,92.2,1.3,92.2,1.2"></path>
<path class="st0" d="M77.7,34.7c0,0,1.8,5.3,3.4,6.1c1.6,0.8,3-0.7,3.8-1.7c0.7-1,1.3-2.3,1.1-5.2C85.7,31,80.4,33.7,77.7,34.7"></path>
<path class="st1" d="M0,1.1h15.9c3.4,0,6.1,0.8,8.3,2.7c2.3,1.9,4,5,4,8.7c0,5.2-3,9.5-7.9,11.2l9.4,18h-7.3L14,24.4H6.2v17.3H0V1.1  z M6.2,18.9h9.3c4.6,0,6.9-3,6.9-6.4c0-2.1-0.8-3.7-2.1-4.6c-1.1-0.9-2.4-1.3-4.5-1.3H6.2V18.9z"></path>
<path class="st1" d="M34.8,1.1H49c5.4,0,9.8,2.4,12.4,6.8c2,3.4,2.2,5,2.2,13.5c0,9.1-0.5,10.7-2.3,13.6c-2.4,3.8-6.6,6.7-12.7,6.7  H34.8V1.1z M40.9,35.9h7.4c3.5,0,5.9-1.2,7.5-3.5c1.4-2.1,1.5-3.2,1.5-10.7c0-7.3-0.2-9.1-1.8-11.3c-1.9-2.6-3.9-3.4-7.2-3.4h-7.4  V35.9z"></path>
<rect x="118.1" y="1.1" class="st1" width="6.2" height="40.6"></rect>
<path class="st1" d="M132.9,1.1h14.2c5.4,0,9.8,2.4,12.4,6.8c2,3.4,2.2,5,2.2,13.5c0,9.1-0.5,10.7-2.3,13.6  c-2.4,3.8-6.6,6.7-12.7,6.7h-13.8V1.1z M139,35.9h7.4c3.5,0,5.9-1.2,7.5-3.5c1.4-2.1,1.5-3.2,1.5-10.7c0-7.3-0.2-9.1-1.8-11.3  c-1.9-2.6-3.9-3.4-7.2-3.4H139V35.9z"></path>
<path class="st1" d="M0.5,50.3h3.7c0.8,0,1.4,0.2,1.9,0.6c0.5,0.5,0.9,1.2,0.9,2c0,1.2-0.7,2.2-1.8,2.6l2.2,4.2H5.7l-1.9-4H2v4H0.5  V50.3z M2,54.4h2.2c1.1,0,1.6-0.7,1.6-1.5c0-0.5-0.2-0.9-0.5-1.1c-0.3-0.2-0.6-0.3-1-0.3H2V54.4z"></path>
<path class="st1" d="M12.3,59.1L12.3,59.1c-0.3,0.5-0.8,0.7-1.7,0.7c-1.5,0-2.4-0.9-2.4-2.1c0-1.1,0.7-2,2.2-2h1.9V55  c0-0.6-0.4-0.9-1.4-0.9c-0.7,0-1,0.1-1.3,0.5l-1.1-0.8c0.5-0.7,1.3-1,2.3-1c1.7,0,2.8,0.6,2.8,2.2v4.6h-1.4V59.1z M12.3,56.9h-1.6  c-0.8,0-1.2,0.3-1.2,0.8c0,0.5,0.4,0.8,1.3,0.8c1.1,0,1.5-0.1,1.5-1.2V56.9z"></path>
<path class="st1" d="M16.7,56.9c0,1.1,0.7,1.7,1.6,1.7c0.5,0,1.1-0.2,1.5-0.6l1,0.8c-0.7,0.8-1.5,1.1-2.4,1.1c-1.4,0-3-0.7-3-3.4  c0-2.6,1.5-3.5,2.8-3.5c1.5,0,2.8,1.1,2.8,2.8v1.1H16.7z M19.6,55.7c0-1-0.6-1.6-1.4-1.6c-0.8,0-1.4,0.5-1.4,1.6H19.6z"></path>
<path class="st1" d="M26.2,50.3h3.3c1.2,0,2.3,0.6,2.9,1.6c0.5,0.8,0.5,1.2,0.5,3.1c0,2.1-0.1,2.5-0.5,3.2c-0.6,0.9-1.5,1.6-2.9,1.6  h-3.2V50.3z M27.6,58.4h1.7c0.8,0,1.4-0.3,1.8-0.8c0.3-0.5,0.4-0.7,0.4-2.5c0-1.7,0-2.1-0.4-2.6c-0.4-0.6-0.9-0.8-1.7-0.8h-1.7V58.4  z"></path>
<path class="st1" d="M34.7,53h1.4v4c0,0.9,0.6,1.4,1.3,1.4c0.8,0,1.3-0.5,1.3-1.4v-4h1.4v6.7h-1.4V59h0c-0.4,0.5-1,0.8-1.7,0.8  c-1.1,0-2.3-0.8-2.3-2.3V53z"></path>
<path class="st1" d="M42.1,53h1.4v0.7h0c0.4-0.5,1-0.8,1.8-0.8c1,0,2.2,0.8,2.2,2.3v4.5h-1.4v-4c0-0.9-0.6-1.4-1.3-1.4  c-0.8,0-1.3,0.5-1.3,1.4v4h-1.4V53z"></path>
<path class="st1" d="M54.5,58.6c-0.6,0.7-1.4,1.2-2.4,1.2c-1.6,0-3.1-1-3.1-3.4c0-2.5,1.5-3.4,3.1-3.4c1,0,1.8,0.5,2.4,1.2l-1,0.9  c-0.3-0.4-0.8-0.7-1.4-0.7c-1.1,0-1.7,0.6-1.7,2.1c0,1.5,0.6,2.1,1.7,2.1c0.6,0,1-0.3,1.4-0.7L54.5,58.6z"></path>
<path class="st1" d="M59.2,59.1L59.2,59.1c-0.3,0.5-0.8,0.7-1.7,0.7c-1.5,0-2.4-0.9-2.4-2.1c0-1.1,0.7-2,2.2-2h1.9V55  c0-0.6-0.4-0.9-1.4-0.9c-0.7,0-1,0.1-1.3,0.5l-1.1-0.8c0.5-0.7,1.3-1,2.3-1c1.7,0,2.8,0.6,2.8,2.2v4.6h-1.4V59.1z M59.2,56.9h-1.6  c-0.8,0-1.2,0.3-1.2,0.8c0,0.5,0.4,0.8,1.3,0.8c1.1,0,1.5-0.1,1.5-1.2V56.9z"></path>
<path class="st1" d="M62.6,53H64v0.7h0c0.4-0.5,1-0.8,1.8-0.8c1,0,2.2,0.8,2.2,2.3v4.5h-1.4v-4c0-0.9-0.6-1.4-1.3-1.4  c-0.8,0-1.3,0.5-1.3,1.4v4h-1.4V53z"></path>
<rect x="73.6" y="50.3" class="st1" width="1.4" height="9.4"></rect>
<path class="st1" d="M77.2,53h1.4v0.7h0c0.4-0.5,1-0.8,1.7-0.8c1,0,2.2,0.8,2.2,2.3v4.5h-1.4v-4c0-0.9-0.6-1.4-1.3-1.4  c-0.8,0-1.3,0.5-1.3,1.4v4h-1.4V53z"></path>
<path class="st1" d="M84.6,50.9H86v2h1v1h-1v3.9c0,0.4,0.1,0.5,0.5,0.5H87v1.3h-0.7c-0.9,0-1.6-0.6-1.6-1.7v-4H84v-1h0.7V50.9z"></path>
<path class="st1" d="M89.6,56.9c0,1.1,0.7,1.7,1.6,1.7c0.5,0,1.1-0.2,1.5-0.6l1,0.8c-0.7,0.8-1.5,1.1-2.4,1.1c-1.4,0-3-0.7-3-3.4  c0-2.6,1.5-3.5,2.8-3.5c1.5,0,2.8,1.1,2.8,2.8v1.1H89.6z M92.4,55.7c0-1-0.6-1.6-1.4-1.6c-0.8,0-1.4,0.5-1.4,1.6H92.4z"></path>
<path class="st1" d="M95.4,53h1.4v0.7h0c0.4-0.5,1-0.8,1.7-0.8c0.5,0,1,0.2,1.4,0.5l-1,1.2c-0.3-0.2-0.5-0.3-0.9-0.3  c-0.7,0-1.3,0.4-1.3,1.4v4h-1.4V53z"></path>
<path class="st1" d="M100.9,50.3h1.4v1.3h-1.4V50.3z M100.9,53h1.4v6.7h-1.4V53z"></path>
<path class="st1" d="M104.7,53.8c0.4-0.4,1-0.9,2-0.9c1,0,1.7,0.5,2,0.9c0.5,0.6,0.7,1.1,0.7,2.6c0,1.5-0.2,2-0.7,2.6  c-0.4,0.4-1,0.9-2,0.9c-1,0-1.7-0.5-2-0.9c-0.5-0.6-0.7-1.1-0.7-2.6C104,54.9,104.2,54.3,104.7,53.8 M107.9,54.8  c-0.2-0.3-0.6-0.5-1.1-0.5c-0.5,0-0.9,0.2-1.1,0.5c-0.3,0.4-0.3,0.6-0.3,1.6c0,1,0.1,1.2,0.3,1.6c0.2,0.3,0.6,0.5,1.1,0.5  c0.5,0,0.9-0.2,1.1-0.5c0.3-0.4,0.3-0.6,0.3-1.6C108.2,55.4,108.1,55.1,107.9,54.8"></path>
<path class="st1" d="M111.3,53h1.4v0.7h0c0.4-0.5,1-0.8,1.7-0.8c0.5,0,1,0.2,1.4,0.5l-1,1.2c-0.3-0.2-0.5-0.3-0.9-0.3  c-0.7,0-1.3,0.4-1.3,1.4v4h-1.4V53z"></path>
<path class="st1" d="M120.3,50.3h3.3c1.2,0,2.3,0.6,2.9,1.6c0.5,0.8,0.5,1.2,0.5,3.1c0,2.1-0.1,2.5-0.5,3.2  c-0.6,0.9-1.5,1.6-2.9,1.6h-3.2V50.3z M121.7,58.4h1.7c0.8,0,1.4-0.3,1.8-0.8c0.3-0.5,0.4-0.7,0.4-2.5c0-1.7,0-2.1-0.4-2.6  c-0.4-0.6-0.9-0.8-1.7-0.8h-1.7V58.4z"></path>
<path class="st1" d="M129.8,56.9c0,1.1,0.7,1.7,1.6,1.7c0.5,0,1.1-0.2,1.5-0.6l1,0.8c-0.7,0.8-1.5,1.1-2.4,1.1c-1.4,0-3-0.7-3-3.4  c0-2.6,1.5-3.5,2.8-3.5c1.5,0,2.8,1.1,2.8,2.8v1.1H129.8z M132.7,55.7c0-1-0.6-1.6-1.4-1.6c-0.8,0-1.4,0.5-1.4,1.6H132.7z"></path>
<path class="st1" d="M135.9,57.7c0.6,0.6,1.2,0.9,2.1,0.9c0.8,0,1.3-0.3,1.3-0.9c0-0.5-0.4-0.6-0.8-0.7l-1.2-0.1  c-1.1-0.1-1.9-0.8-1.9-1.9c0-1.4,1.1-2.1,2.5-2.1c1.2,0,2,0.4,2.6,0.9l-0.8,1c-0.5-0.4-1.1-0.6-1.8-0.6c-0.9,0-1.2,0.3-1.2,0.8  c0,0.3,0.2,0.6,0.9,0.6l1.1,0.1c1.4,0.1,1.9,0.9,1.9,2c0,1.3-1.2,2.1-2.8,2.1c-1.1,0-2.1-0.4-3-1.2L135.9,57.7z"></path>
<path class="st1" d="M142.4,50.3h1.4v1.3h-1.4V50.3z M142.4,53h1.4v6.7h-1.4V53z"></path>
<path class="st1" d="M149.6,59c-0.4,0.5-1,0.8-1.7,0.8c-0.9,0-1.5-0.4-1.8-0.8c-0.4-0.5-0.5-0.8-0.5-2.6c0-1.9,0.1-2.1,0.5-2.6  c0.3-0.4,0.9-0.8,1.8-0.8c0.7,0,1.2,0.3,1.7,0.8V53h1.4v6.6c0,2-1.4,3-2.9,3c-0.9,0-1.7-0.5-2.3-1.1l1-0.8c0.3,0.3,0.8,0.6,1.3,0.6  c0.9,0,1.5-0.5,1.5-1.5V59z M147.2,57.9c0.2,0.2,0.5,0.5,1.1,0.5c0.5,0,0.9-0.3,1.1-0.5c0.2-0.3,0.3-0.5,0.3-1.6  c0-1.1,0-1.3-0.3-1.6c-0.2-0.2-0.5-0.5-1.1-0.5c-0.5,0-0.9,0.3-1.1,0.5c-0.2,0.3-0.3,0.5-0.3,1.6C146.9,57.4,147,57.6,147.2,57.9"></path>
<path class="st1" d="M153,53h1.4v0.7h0c0.4-0.5,1-0.8,1.7-0.8c1,0,2.2,0.8,2.2,2.3v4.5H157v-4c0-0.9-0.6-1.4-1.3-1.4  c-0.8,0-1.3,0.5-1.3,1.4v4H153V53z"></path>
</svg>
